# xmcd CD database file
#
# Track frame offsets:
#	225
#	17589
#	36483
#	49035
#	57978
#	80321
#	96890
#	124865
#	135363
#	147824
#	156027
#	169832
#	183946
#	198075
#	214473
#	223836
#	237252
#	251609
#	267125
#	277867
#
# Disc length: 3904 seconds
#
# Revision: 5
# Processed by: cddbd v1.5.1PL0 Copyright (c) Steve Scherf et al.
# Submitted via: CDex 1.51
#
DISCID=1c0f3d14
DTITLE=麗莎 - 名曲金典 1
DYEAR=1978
DGENRE=New Age
TTITLE0=相思淚
TTITLE1=襌院鍾聲
TTITLE2=盼知音
TTITLE3=啤酒女郎
TTITLE4=恨綿綿
TTITLE5=啼笑姻緣
TTITLE6=王昭君
TTITLE7=秋風吹謝了春紅
TTITLE8=平湖秋月
TTITLE9=情愛問題
TTITLE10=夜夜寄相思
TTITLE11=甜蜜的回憶
TTITLE12=往事似輕煙
TTITLE13=難忘的情人
TTITLE14=愛海鴛鴦
TTITLE15=我心碎了
TTITLE16=相思淚盡人未歸
TTITLE17=等待
TTITLE18=哥仔靚
TTITLE19=淚痕
EXTD=YEAR: 1978
EXTT0=
EXTT1=
EXTT2=
EXTT3=
EXTT4=
EXTT5=
EXTT6=
EXTT7=
EXTT8=
EXTT9=
EXTT10=
EXTT11=
EXTT12=
EXTT13=
EXTT14=
EXTT15=
EXTT16=
EXTT17=
EXTT18=
EXTT19=
PLAYORDER=
